<?xml version="1.0" standalone="no"?>
<!DOCTYPE svg PUBLIC "-//W3C//DTD SVG 20010904//EN"
 "http://www.w3.org/TR/2001/REC-SVG-20010904/DTD/svg10.dtd">
<svg version="1.0" xmlns="http://www.w3.org/2000/svg"
 width="1200.000000pt" height="1200.000000pt" viewBox="0 0 1200.000000 1200.000000"
 preserveAspectRatio="xMidYMid meet">
<metadata>
Created by potrace 1.14, written by Peter Selinger 2001-2017
</metadata>
<g transform="translate(0.000000,1200.000000) scale(0.100000,-0.100000)"
fill="#000000" stroke="none">
<path d="M9076 11400 c5 -5 34 -21 64 -36 30 -15 61 -36 68 -46 7 -10 24 -18
38 -18 14 0 23 -4 19 -9 -3 -5 8 -18 25 -27 16 -10 30 -24 30 -31 0 -7 5 -13
11 -13 5 0 7 -5 3 -12 -5 -8 -2 -9 9 -5 11 4 17 1 17 -7 0 -8 7 -16 15 -20 8
-3 15 -12 15 -21 0 -8 7 -15 15 -15 9 0 15 -9 15 -25 0 -14 4 -25 8 -25 14 0
35 -76 30 -104 -3 -14 -2 -26 2 -26 5 0 7 -18 6 -40 0 -22 1 -40 4 -40 3 0 4
-19 2 -42 -3 -42 -11 -67 -38 -120 -8 -14 -14 -35 -14 -46 0 -20 -30 -86 -30
-67 0 6 -19 -28 -41 -75 -22 -46 -44 -87 -50 -91 -6 -3 -11 -12 -12 -20 -4
-27 -49 -89 -59 -83 -7 4 -8 2 -4 -5 18 -29 -175 -230 -299 -312 -38 -26 -101
-63 -140 -82 -63 -32 -73 -41 -99 -91 -32 -63 -62 -79 -101 -54 -17 10 -59 13
-73 4 -8 -5 -19 -1 -30 11 -13 14 -31 18 -82 17 -36 0 -68 4 -72 10 -5 7 -8 7
-8 -2 0 -8 -5 -10 -12 -5 -7 4 -38 8 -68 9 -59 0 -111 14 -175 47 -22 12 -43
21 -47 22 -14 0 -85 84 -101 117 -8 18 -20 51 -26 73 -6 22 -15 47 -21 55 -32
49 13 -145 55 -237 19 -40 31 -73 29 -73 -11 0 -74 151 -98 234 -42 143 -54
343 -29 466 2 14 -7 0 -22 -30 -114 -237 -355 -384 -601 -367 -132 9 -271 67
-374 155 -21 18 -68 70 -103 115 -288 369 -770 543 -1207 435 l-95 -23 110 -6
c80 -4 126 -11 168 -28 51 -20 116 -64 125 -83 2 -5 9 -8 15 -8 7 0 32 -20 56
-45 24 -25 48 -45 53 -45 4 0 8 -6 8 -12 0 -7 11 -35 24 -61 14 -26 30 -64 36
-83 31 -94 29 -289 -5 -353 -8 -17 -15 -37 -15 -45 0 -8 -7 -21 -15 -30 -9 -8
-15 -19 -14 -23 3 -17 -2 -32 -13 -45 -7 -7 -19 -26 -27 -43 -22 -45 -84 -139
-99 -148 -7 -5 -10 -12 -7 -18 4 -5 -1 -9 -9 -9 -9 0 -16 -4 -16 -8 0 -4 -20
-29 -45 -55 -25 -27 -45 -45 -45 -42 0 8 -73 -47 -83 -62 -4 -7 -17 -13 -27
-13 -11 0 -20 -5 -20 -11 0 -5 -4 -8 -9 -5 -5 3 -14 -1 -21 -10 -7 -8 -19 -13
-25 -10 -7 2 -12 -3 -11 -12 1 -11 -8 -18 -24 -20 -26 -3 -159 -45 -195 -61
-79 -35 -136 -55 -170 -59 -22 -2 -42 -8 -45 -12 -8 -11 -78 -23 -147 -25 -56
-1 -62 1 -72 22 -6 13 -16 21 -21 18 -5 -3 -25 8 -42 24 -18 17 -36 31 -40 31
-3 0 -5 8 -4 18 2 9 -3 22 -10 27 -7 6 -15 24 -17 40 -2 17 -7 37 -10 45 -12
30 -47 210 -47 243 0 18 -4 37 -9 43 -14 14 15 173 49 276 50 147 126 277 232
393 29 32 43 53 31 47 -29 -16 -127 -132 -179 -214 -135 -211 -197 -418 -196
-663 1 -340 127 -636 368 -865 227 -216 523 -330 861 -330 200 0 382 -73 523
-210 149 -144 227 -369 200 -571 -13 -90 -42 -194 -73 -254 -18 -37 -15 -35
53 34 179 180 417 309 665 360 63 13 82 20 65 24 -231 47 -328 93 -446 211
-133 133 -194 282 -194 471 0 166 41 304 128 431 102 152 149 253 193 424 45
171 113 287 227 384 97 84 258 145 379 146 127 0 312 -68 405 -149 25 -23 50
-41 56 -41 5 0 31 -27 57 -61 178 -226 498 -380 789 -379 395 2 715 171 918
485 224 346 222 803 -6 1154 -116 179 -320 340 -526 415 -61 22 -175 47 -164
36z m564 -1206 c0 -8 5 -14 11 -14 8 0 10 -19 5 -62 -9 -91 -79 -226 -119
-232 -9 -1 -23 -10 -30 -21 -17 -23 -83 -31 -115 -13 -20 10 -23 19 -20 49 2
21 -1 35 -6 32 -5 -3 -7 -2 -5 3 65 145 123 217 208 258 48 23 71 23 71 0z
m-956 -495 c-34 -13 -50 -11 -29 5 11 8 26 11 34 8 12 -4 11 -7 -5 -13z m176
-27 c-19 -8 -38 -19 -42 -26 -4 -6 -8 -6 -8 -1 0 6 -4 4 -8 -2 -5 -7 -35 -18
-68 -24 -32 -5 -66 -12 -75 -15 -12 -3 -18 4 -21 26 -6 37 2 43 35 31 14 -5
28 -6 33 -1 11 11 93 25 148 26 l40 0 -34 -14z m125 -51 c6 -3 12 -6 15 -7 3
-1 19 -4 36 -9 37 -8 40 -29 6 -44 -19 -9 -23 -16 -18 -34 11 -37 14 -67 5
-62 -4 3 -10 1 -13 -4 -3 -5 1 -11 9 -15 8 -3 15 -9 15 -14 0 -32 -153 -38
-223 -9 -21 9 -55 34 -77 56 l-39 39 26 7 c33 8 56 32 49 50 -3 8 -1 15 5 15
6 0 8 4 5 8 -3 5 0 9 7 10 7 0 29 2 50 3 20 1 37 6 37 10 0 10 90 10 105 0z
m-2467 -289 c8 -53 -61 -130 -87 -98 -21 25 43 133 74 123 5 -2 11 -13 13 -25z"/>
<path d="M7568 9256 c-32 -7 -60 -14 -62 -17 -3 -2 24 -4 59 -4 71 0 98 -16
121 -72 20 -48 17 -140 -6 -192 -23 -50 -25 -65 -16 -138 3 -32 2 -53 -4 -53
-6 0 -10 -6 -10 -14 0 -35 -104 -96 -189 -111 -98 -17 -181 -13 -195 11 -14
24 -35 102 -36 132 0 12 -4 22 -10 22 -14 0 -12 -76 4 -135 34 -130 117 -230
240 -291 174 -86 397 -45 530 96 138 147 166 364 69 542 -59 109 -201 207
-329 228 -73 12 -94 12 -166 -4z m402 -581 c0 -29 -40 -75 -65 -75 -22 0 -19
36 6 71 26 37 59 39 59 4z m-296 -254 c-7 -8 -35 9 -29 19 4 6 11 5 20 -3 7
-6 11 -14 9 -16z"/>
<path d="M7357 9150 c-79 -70 -128 -161 -141 -267 -3 -23 -1 -45 4 -48 6 -4
10 13 10 39 0 63 36 152 81 200 54 59 102 116 96 116 -2 0 -25 -18 -50 -40z"/>
<path d="M5531 8017 c20 -12 50 -36 67 -52 46 -45 71 -165 42 -200 -7 -8 -10
-15 -7 -15 8 0 -58 -123 -94 -176 -36 -53 -96 -107 -162 -144 -35 -20 -61 -43
-76 -70 -28 -50 -36 -55 -63 -36 -25 18 -42 21 -33 7 3 -6 -6 -7 -22 -2 -16 5
-37 5 -48 1 -11 -4 -29 -2 -40 4 -11 6 -24 11 -30 11 -5 0 -25 15 -43 33 -41
40 -47 40 -26 0 30 -59 131 -154 197 -186 228 -112 505 -19 615 208 32 66 37
86 40 168 9 203 -81 360 -253 443 -74 36 -118 40 -64 6z m189 -567 c-28 -54
-56 -75 -97 -71 -37 3 12 111 61 135 29 14 32 14 42 -7 10 -17 9 -28 -6 -57z
m-370 -147 c17 4 20 2 15 -13 -5 -15 0 -17 37 -14 54 4 77 -8 59 -30 -11 -13
-11 -16 0 -17 11 0 11 -2 1 -6 -10 -4 -10 -8 -1 -19 9 -11 7 -14 -12 -15 -51
-2 -85 3 -100 17 -8 8 -22 14 -30 14 -9 0 -5 7 10 19 30 23 21 39 -20 33 -22
-3 -30 -1 -25 7 4 6 2 11 -4 11 -8 0 -8 6 0 21 11 20 13 20 30 4 12 -10 28
-15 40 -12z"/>
<path d="M5295 7300 c3 -5 8 -10 11 -10 2 0 4 5 4 10 0 6 -5 10 -11 10 -5 0
-7 -4 -4 -10z"/>
<path d="M8051 7726 c2 -2 15 -9 29 -15 24 -11 24 -11 6 3 -16 13 -49 24 -35
12z"/>
<path d="M8136 7677 c3 -10 9 -15 12 -12 3 3 0 11 -7 18 -10 9 -11 8 -5 -6z"/>
<path d="M8180 7644 c14 -17 27 -30 28 -29 6 6 42 -29 42 -40 0 -6 9 -16 20
-23 11 -7 20 -19 20 -27 0 -18 31 -56 41 -49 4 2 5 -5 2 -16 -3 -12 2 -29 11
-39 9 -10 13 -21 9 -24 -3 -4 -1 -7 6 -7 8 0 11 -8 8 -20 -3 -11 -2 -22 3 -25
4 -2 8 -16 8 -31 0 -14 4 -29 10 -33 7 -4 7 -22 2 -51 -12 -62 -12 -64 5 -50
14 11 14 10 6 -12 -5 -14 -7 -29 -4 -32 4 -3 1 -6 -5 -6 -7 0 -12 -11 -12 -25
0 -14 -5 -25 -12 -25 -6 0 -9 -2 -6 -5 8 -9 -10 -82 -31 -126 -11 -22 -15 -37
-11 -34 5 3 11 1 15 -5 3 -5 1 -10 -5 -10 -6 0 -9 -4 -5 -9 3 -5 0 -13 -6 -17
-7 -4 -7 -9 -1 -13 6 -4 2 -25 -10 -56 l-19 -51 -69 33 c-38 18 -85 35 -103
37 -33 5 -35 3 -55 -47 -29 -69 -122 -224 -189 -316 -104 -140 -278 -294 -438
-386 -55 -32 -67 -44 -58 -59 3 -5 2 -6 -3 -3 -6 3 -15 -3 -22 -13 -7 -12 -8
-21 -2 -25 6 -3 10 -11 10 -16 0 -6 -5 -7 -12 -3 -8 5 -9 2 -5 -10 4 -10 1
-19 -9 -23 -8 -3 -13 -12 -10 -20 3 -8 2 -11 -3 -8 -5 3 -12 1 -16 -5 -9 -14
17 -12 59 5 19 8 52 17 72 20 29 3 35 1 30 -10 -7 -18 -4 -18 38 -1 19 8 39
10 47 6 7 -5 17 -6 21 -4 4 3 8 0 8 -5 0 -6 -3 -11 -7 -11 -5 0 -26 -16 -47
-35 -22 -19 -48 -37 -58 -41 -10 -3 -18 -10 -18 -15 0 -5 9 -4 19 3 16 9 27 8
59 -6 32 -15 44 -16 62 -6 21 11 21 11 5 -14 -10 -14 -22 -26 -29 -27 -6 0 4
-7 22 -15 20 -9 30 -19 26 -26 -5 -8 4 -9 32 -3 69 14 88 14 96 2 6 -9 8 -9 8
0 0 8 6 8 24 0 19 -9 22 -15 15 -29 -9 -16 -7 -16 33 -2 60 21 199 90 237 118
l31 24 -25 0 c-14 0 -36 9 -49 21 -19 18 -23 31 -22 77 1 52 0 55 -21 51 -19
-3 -21 -1 -12 14 5 10 15 22 22 26 15 10 37 48 37 65 0 24 70 149 118 213 44
59 146 155 164 155 4 0 8 7 8 15 0 15 20 17 31 2 7 -10 36 48 41 83 3 28 20
44 58 55 24 7 25 7 5 -9 -20 -17 -20 -17 1 -11 32 9 37 -18 14 -83 -34 -95
-23 -137 45 -177 l42 -24 -16 -60 c-10 -40 -21 -61 -33 -64 -10 -3 -20 -13
-23 -24 -17 -56 -107 -198 -135 -213 -12 -6 -17 -16 -13 -26 6 -16 -12 -36
-62 -69 -34 -22 -50 -27 -83 -26 -13 1 -38 -7 -55 -16 -30 -15 -31 -15 -17 2
8 9 -49 -15 -125 -55 -150 -78 -164 -87 -125 -75 44 13 16 -3 -73 -43 -73 -32
-85 -41 -73 -51 18 -15 31 -71 19 -80 -6 -3 -12 -17 -15 -31 -3 -14 -9 -32
-12 -42 -5 -11 -1 -18 13 -23 24 -7 29 -35 6 -35 -8 0 -15 -5 -15 -11 0 -6 -9
-9 -19 -6 -22 5 -65 -28 -56 -44 4 -5 8 -9 11 -9 3 0 2 5 -1 10 -8 13 1 13 24
1 18 -10 21 -10 200 34 309 76 614 336 771 660 204 420 162 943 -107 1324 -80
113 -241 269 -348 337 l-30 19 25 -31z m351 -886 c10 2 6 -21 -21 -125 -10
-42 -33 -62 -25 -24 2 11 5 56 6 101 3 71 5 79 17 63 7 -10 18 -17 23 -15z
m-1016 -838 c-3 -5 -12 -10 -18 -10 -7 0 -6 4 3 10 19 12 23 12 15 0z"/>
<path d="M3375 7319 c-86 -13 -208 -45 -299 -79 -137 -51 -127 -71 11 -23 70
25 92 27 213 28 117 0 142 -3 190 -22 30 -13 67 -33 81 -45 29 -26 109 -151
109 -172 0 -7 3 -16 8 -20 4 -4 7 -11 7 -14 1 -4 5 -17 9 -30 16 -46 32 -189
30 -265 -4 -147 -14 -183 -145 -490 -30 -69 -32 -80 -18 -88 11 -5 15 -17 11
-34 -2 -14 0 -25 5 -25 5 0 9 -27 9 -60 -1 -33 2 -60 6 -60 3 0 6 -36 5 -80
-1 -44 1 -80 5 -80 4 0 0 -12 -8 -27 -7 -16 -17 -44 -21 -63 -6 -36 -31 -63
-47 -53 -5 4 -6 1 -2 -5 4 -7 3 -12 -3 -12 -5 0 -12 -9 -16 -20 -7 -21 -84
-100 -99 -100 -12 0 -113 -67 -121 -80 -3 -6 -12 -10 -20 -10 -7 0 -42 -16
-77 -36 -56 -33 -95 -45 -150 -47 -10 -1 -18 -4 -18 -8 0 -4 -20 -10 -45 -13
-24 -4 -47 -12 -51 -17 -3 -6 -32 -9 -63 -8 -32 1 -64 -2 -72 -7 -8 -5 -77
-10 -154 -11 -77 -1 -172 -5 -212 -8 -65 -7 -73 -5 -89 14 -10 12 -23 21 -28
21 -16 0 -77 70 -71 80 3 6 2 10 -4 10 -12 0 -21 42 -26 125 -2 34 -15 87 -30
122 -39 96 -48 161 -42 338 5 172 19 251 70 404 49 149 154 340 178 325 5 -3
9 1 9 8 0 8 10 20 22 28 19 13 74 60 119 100 9 8 30 43 47 78 30 64 72 103
223 205 55 38 43 46 -18 11 -215 -124 -432 -360 -553 -599 -103 -205 -143
-377 -143 -607 0 -49 -3 -88 -8 -88 -4 0 -6 -30 -4 -67 7 -118 17 -237 22
-258 2 -11 6 -33 8 -49 3 -16 12 -54 20 -85 131 -461 497 -843 963 -1005 510
-177 1089 -67 1503 287 216 185 390 458 475 747 66 224 143 363 267 476 291
266 712 256 1010 -25 38 -36 72 -66 76 -65 3 1 36 -34 74 -77 66 -77 182 -174
282 -237 126 -79 341 -159 450 -168 144 -11 298 -13 315 -4 23 12 27 35 5 27
-8 -4 -17 -2 -19 2 -6 10 -55 22 -106 26 -85 8 -112 15 -142 36 -18 13 -34 27
-36 31 -2 4 -8 8 -14 8 -6 0 -33 16 -59 35 -27 19 -59 35 -72 35 -18 0 -19 2
-7 10 13 9 13 10 0 10 -13 0 -13 1 0 10 12 8 11 11 -8 16 -16 5 -20 9 -12 14
15 9 -18 46 -47 52 -10 2 -17 10 -16 16 2 7 -6 12 -17 12 -11 0 -20 4 -20 9 0
5 -8 7 -19 4 -10 -2 -25 3 -34 11 -8 9 -21 16 -27 16 -6 0 -22 11 -36 25 -23
23 -38 29 -87 37 -10 2 -18 8 -18 13 -1 18 -31 28 -40 14 -7 -10 -11 -11 -17
-2 -4 6 -21 14 -37 18 -17 4 -50 16 -75 27 -25 11 -51 21 -58 22 -8 2 -17 7
-20 12 -4 5 -13 10 -19 11 -7 2 -30 21 -50 43 -21 22 -42 40 -48 40 -5 0 -21
17 -35 38 -32 48 -59 77 -64 71 -3 -3 7 -29 21 -59 14 -30 26 -58 25 -62 -1
-5 2 -8 8 -8 5 0 10 -5 10 -11 0 -6 14 -31 30 -56 17 -25 29 -47 27 -50 -6 -5
-97 137 -130 203 -39 77 -95 245 -113 342 -19 95 -24 303 -11 417 l8 70 -38
-65 c-51 -87 -181 -216 -270 -269 -227 -134 -487 -145 -718 -29 -128 65 -212
137 -335 288 -259 316 -576 507 -948 571 -122 20 -371 25 -487 8z m1255 -1874
c27 -51 -28 -216 -92 -276 -44 -41 -111 -71 -142 -63 -52 13 -56 97 -8 189 37
71 80 119 132 149 56 32 93 32 110 1z m-980 -835 c-52 -18 -53 -19 -15 -15
l40 4 -40 -13 c-22 -8 -51 -15 -65 -16 -22 -1 -21 -2 10 -14 53 -20 131 -58
127 -63 -16 -16 -123 -19 -141 -4 -7 6 -25 14 -37 16 -13 3 -30 13 -37 22 -11
16 -10 19 15 24 15 4 21 8 13 9 -8 1 1 8 20 16 l35 14 -35 -5 -35 -5 35 17
c33 16 101 30 145 31 11 0 -5 -8 -35 -18z"/>
<path d="M3919 3240 c-107 -13 -188 -37 -288 -86 -223 -110 -341 -307 -341
-568 0 -124 19 -207 68 -300 119 -228 396 -352 741 -333 328 19 562 168 652
417 21 58 24 82 24 220 0 151 -1 157 -33 235 -61 151 -174 270 -327 341 -86
40 -163 60 -280 74 -99 11 -120 11 -216 0z m309 -171 c178 -47 294 -146 349
-296 85 -234 -14 -507 -219 -603 -105 -49 -179 -64 -318 -64 -208 0 -349 52
-458 168 -165 177 -160 490 11 660 142 142 401 197 635 135z"/>
<path d="M5505 2850 c-81 -13 -143 -35 -199 -70 -26 -17 -49 -30 -51 -30 -3 0
-5 20 -5 45 l0 45 -80 0 -80 0 0 -600 0 -600 80 0 80 0 0 225 c0 124 3 225 6
225 3 0 20 -11 38 -25 78 -59 214 -95 365 -95 146 0 261 41 352 127 97 90 132
185 127 336 -3 92 -6 109 -36 169 -54 111 -166 197 -303 233 -71 19 -219 26
-294 15z m236 -146 c141 -44 219 -147 219 -288 0 -82 -22 -145 -72 -201 -134
-152 -432 -150 -571 4 -51 57 -67 104 -67 193 0 173 103 280 294 308 62 9 136
3 197 -16z"/>
<path d="M6730 2844 c-238 -63 -375 -261 -341 -496 24 -171 125 -291 297 -355
94 -34 267 -43 376 -19 151 34 277 117 328 215 23 47 29 42 -73 70 l-68 19
-14 -27 c-18 -35 -82 -95 -125 -116 -93 -47 -196 -56 -303 -26 -125 35 -213
116 -241 223 l-13 53 439 3 440 2 -7 53 c-27 200 -168 355 -366 402 -81 19
-256 18 -329 -1z m322 -129 c26 -9 66 -34 90 -55 44 -38 103 -132 91 -144 -8
-8 -658 -8 -666 0 -20 20 84 144 148 177 94 48 235 58 337 22z"/>
<path d="M8140 2854 c-63 -12 -155 -49 -200 -79 l-50 -34 0 50 0 49 -85 0 -85
0 0 -430 0 -430 85 0 85 0 0 246 c0 296 4 318 74 390 73 74 139 97 276 98 100
1 109 -1 173 -32 70 -35 106 -72 126 -131 7 -22 11 -128 11 -302 l0 -269 86 0
86 0 -4 308 c-3 287 -4 310 -24 353 -42 90 -107 146 -219 189 -49 18 -84 23
-185 26 -69 1 -136 0 -150 -2z"/>
<path d="M3420 1250 l0 -370 50 0 50 0 0 145 0 145 184 0 184 0 122 -145 123
-145 70 0 c65 0 69 1 56 18 -12 14 -173 201 -232 269 l-19 22 39 10 c99 27
153 96 153 199 0 104 -32 159 -115 198 -49 23 -56 24 -357 24 l-308 0 0 -370z
m610 265 c42 -22 63 -68 58 -127 -5 -52 -24 -80 -73 -107 -25 -13 -65 -16
-260 -16 l-230 0 -3 133 -3 132 241 0 c196 0 246 -3 270 -15z"/>
<path d="M4610 1250 l0 -370 50 0 50 0 0 164 c0 164 0 165 27 197 63 75 207
103 300 58 70 -34 77 -57 81 -251 l4 -168 50 0 50 0 -4 188 c-3 212 -9 230
-86 289 -95 72 -255 70 -404 -5 -5 -2 -8 57 -8 132 l0 136 -55 0 -55 0 0 -370z"/>
<path d="M5817 1400 c-132 -34 -207 -129 -207 -266 0 -129 71 -220 203 -259
87 -26 220 -15 297 25 35 17 89 70 105 101 14 26 14 27 -32 39 l-45 13 -32
-36 c-76 -87 -216 -101 -318 -30 -34 23 -78 92 -78 121 0 9 68 12 266 12 l267
0 -6 45 c-20 141 -139 236 -302 241 -44 2 -97 -1 -118 -6z m213 -92 c40 -20
90 -76 90 -99 0 -5 -90 -9 -200 -9 -110 0 -200 3 -200 8 0 27 66 93 112 111
46 19 150 13 198 -11z"/>
<path d="M8369 1400 c-47 -8 -121 -41 -151 -67 -14 -13 -21 -10 -62 21 -53 41
-102 51 -215 44 -62 -4 -88 -11 -134 -35 l-57 -31 0 29 c0 28 -1 29 -50 29
l-50 0 0 -255 0 -255 49 0 49 0 4 164 c4 190 9 203 94 246 37 19 65 25 114 25
77 0 115 -17 147 -64 22 -32 23 -43 23 -202 l0 -169 55 0 55 0 0 163 c0 143 2
166 20 194 55 90 242 110 315 33 37 -38 44 -82 45 -247 l0 -143 50 0 50 0 0
168 c0 186 -8 227 -50 276 -55 62 -189 96 -301 76z"/>
<path d="M6620 1218 c0 -95 5 -190 10 -210 25 -89 104 -137 235 -146 96 -6
162 8 217 44 46 30 48 30 48 -1 0 -23 3 -25 50 -25 l50 0 0 255 0 255 -50 0
-50 0 0 -142 c0 -170 -9 -207 -56 -246 -92 -76 -277 -68 -331 14 -15 24 -18
54 -21 201 l-4 173 -49 0 -49 0 0 -172z"/>
</g>
</svg>
